<?xml version="1.0" standalone="no"?>
<!DOCTYPE svg PUBLIC "-//W3C//DTD SVG 20010904//EN"
 "http://www.w3.org/TR/2001/REC-SVG-20010904/DTD/svg10.dtd">
<svg version="1.0" xmlns="http://www.w3.org/2000/svg"
 width="348.000000pt" height="397.000000pt" viewBox="0 0 348.000000 397.000000"
 preserveAspectRatio="xMidYMid meet">

<g transform="translate(0.000000,397.000000) scale(0.100000,-0.100000)"
fill="#C11414" stroke="none">
<path d="M1720 3865 c-7 -9 -33 -25 -56 -35 -24 -11 -46 -24 -49 -30 -3 -6
-25 -19 -48 -29 -23 -11 -53 -31 -66 -45 -14 -14 -30 -26 -36 -26 -6 0 -22
-12 -36 -26 -13 -14 -42 -34 -64 -44 -24 -12 -105 -84 -205 -184 -161 -162
-166 -166 -207 -166 -23 0 -45 -4 -48 -10 -3 -5 -21 -10 -40 -10 -19 0 -37 -4
-40 -10 -3 -5 -21 -10 -40 -10 -19 0 -37 -4 -40 -10 -3 -5 -15 -10 -25 -10
-11 0 -35 -9 -55 -20 -20 -11 -46 -20 -59 -20 -13 0 -50 -13 -81 -30 -31 -16
-65 -30 -74 -30 -10 0 -26 -9 -36 -20 -10 -11 -26 -20 -35 -20 -19 0 -77 -27
-85 -40 -3 -5 -40 -25 -83 -46 -128 -62 -122 -50 -122 -246 0 -105 4 -168 10
-168 6 0 10 -33 10 -80 0 -47 4 -80 10 -80 6 0 10 -13 10 -30 0 -16 5 -30 10
-30 6 0 10 -30 10 -70 0 -40 4 -70 10 -70 6 0 10 -9 10 -20 0 -11 5 -20 10
-20 6 0 10 -18 10 -40 0 -22 5 -40 10 -40 6 0 10 -9 10 -20 0 -11 5 -20 10
-20 6 0 10 -32 10 -75 0 -43 -4 -75 -10 -75 -5 0 -10 -9 -10 -20 0 -11 -4 -20
-10 -20 -5 0 -10 -18 -10 -40 0 -22 -4 -40 -10 -40 -5 0 -10 -9 -10 -20 0 -11
-4 -20 -10 -20 -6 0 -10 -27 -10 -60 0 -33 -4 -60 -10 -60 -5 0 -10 -18 -10
-40 0 -22 -4 -40 -10 -40 -6 0 -10 -30 -10 -70 0 -40 -4 -70 -10 -70 -6 0 -10
-64 -10 -172 l1 -173 27 -23 c15 -13 43 -33 62 -45 60 -37 244 -127 258 -127
8 0 34 -13 59 -30 24 -16 55 -30 67 -30 13 0 50 -13 81 -30 35 -18 72 -30 95
-30 22 0 42 -4 45 -10 3 -5 17 -10 30 -10 13 0 27 -4 30 -10 3 -5 17 -10 30
-10 13 0 27 -4 30 -10 3 -5 25 -10 47 -10 40 0 47 -5 203 -160 88 -88 165
-160 171 -160 6 0 21 -12 35 -26 13 -14 42 -34 65 -44 22 -11 47 -26 54 -35 7
-8 18 -15 24 -15 7 0 23 -12 37 -26 13 -14 42 -34 65 -44 22 -11 47 -26 54
-35 7 -8 17 -15 23 -15 6 0 21 -10 34 -22 l23 -21 23 20 c12 11 39 27 59 37
20 9 40 21 43 26 3 6 25 19 49 30 23 10 49 26 56 35 7 8 18 15 24 15 7 0 25
14 41 30 16 17 34 30 40 30 7 0 20 9 30 20 10 11 23 20 30 20 6 0 24 14 40 30
16 17 33 30 39 30 6 0 74 63 151 140 136 134 143 140 183 140 22 0 44 5 47 10
3 6 17 10 30 10 13 0 27 5 30 10 3 6 17 10 30 10 13 0 27 4 30 10 3 5 17 10
30 10 13 0 27 5 30 10 3 6 17 10 30 10 13 0 27 5 30 10 3 6 17 10 30 10 13 0
27 5 30 10 3 6 14 10 24 10 10 0 71 27 136 60 65 33 125 60 133 60 9 0 23 6
31 14 9 8 45 29 80 47 36 17 71 37 78 45 16 16 19 454 3 454 -6 0 -10 27 -10
60 0 33 -4 60 -10 60 -5 0 -10 18 -10 40 0 22 -4 40 -10 40 -5 0 -10 23 -10
50 0 28 -4 50 -10 50 -5 0 -10 18 -10 40 0 22 -4 40 -10 40 -5 0 -10 9 -10 20
0 11 -4 20 -10 20 -6 0 -10 32 -10 75 0 43 4 75 10 75 6 0 10 14 10 30 0 17 5
30 10 30 6 0 10 23 10 50 0 28 5 50 10 50 6 0 10 18 10 40 0 22 5 40 10 40 6
0 10 14 10 30 0 17 5 30 10 30 6 0 10 27 10 60 0 33 4 60 10 60 6 0 10 80 10
221 0 244 3 232 -70 269 -23 12 -48 26 -54 31 -29 24 -88 59 -100 59 -7 0 -48
18 -91 40 -43 22 -86 40 -96 40 -10 0 -21 5 -24 10 -3 6 -15 10 -25 10 -11 0
-35 9 -55 20 -20 11 -42 20 -50 20 -8 0 -30 9 -50 20 -20 11 -53 20 -75 20
-21 0 -42 5 -45 10 -3 6 -17 10 -30 10 -13 0 -27 5 -30 10 -3 6 -20 10 -36 10
-43 0 -69 20 -207 155 -68 66 -131 123 -140 126 -9 4 -33 23 -51 43 -19 20
-40 36 -46 36 -7 0 -20 9 -30 20 -10 11 -23 20 -30 20 -6 0 -22 12 -36 26 -13
14 -42 34 -65 44 -22 11 -47 26 -54 35 -7 8 -18 15 -25 15 -7 0 -18 7 -25 15
-7 9 -34 26 -59 38 -25 12 -49 23 -52 25 -3 1 -12 -4 -19 -13z m118 -125 c12
-11 25 -20 30 -20 4 0 17 -8 28 -17 10 -10 31 -24 47 -32 15 -8 27 -18 27 -23
0 -4 6 -8 13 -8 6 0 26 -14 44 -30 18 -17 36 -30 40 -30 4 0 22 -14 40 -30 18
-17 36 -30 40 -30 11 0 303 -293 303 -304 0 -4 14 -21 30 -36 17 -15 30 -35
30 -44 0 -9 5 -16 10 -16 6 0 10 -9 10 -20 0 -11 5 -20 10 -20 6 0 10 -9 10
-20 0 -11 5 -20 10 -20 6 0 10 -9 10 -20 0 -11 5 -20 10 -20 6 0 10 -13 10
-30 0 -16 5 -30 10 -30 7 0 10 -65 8 -187 l-3 -188 -35 3 c-19 2 -36 8 -38 13
-2 5 -12 9 -23 9 -10 0 -19 5 -19 10 0 6 -9 10 -19 10 -11 0 -23 5 -26 10 -3
6 -17 10 -31 10 -20 0 -24 5 -24 30 0 17 -4 30 -10 30 -5 0 -10 9 -10 20 0 11
-4 20 -10 20 -5 0 -10 9 -10 20 0 11 -4 20 -10 20 -5 0 -10 8 -10 18 0 10 -9
24 -20 32 -11 8 -20 21 -20 30 0 9 -9 22 -20 30 -11 8 -20 21 -20 28 0 14
-157 172 -170 172 -4 0 -27 18 -51 40 -29 27 -53 40 -72 40 -38 0 -127 61
-127 88 0 10 -36 42 -67 59 -20 11 -30 7 -96 -37 -55 -37 -84 -50 -110 -50
-20 0 -39 5 -42 10 -3 6 -15 10 -25 10 -11 0 -35 9 -55 20 -20 11 -44 20 -53
20 -10 0 -22 4 -28 10 -5 5 -47 10 -94 12 l-85 3 -3 29 c-3 23 6 38 44 77 27
27 53 49 59 49 5 1 37 28 70 60 33 33 66 60 73 60 6 0 12 5 12 10 0 6 7 10 16
10 8 0 29 13 47 30 18 16 36 30 40 30 4 0 17 9 29 20 12 11 28 20 35 20 7 0
13 5 13 10 0 6 7 10 15 10 9 0 25 9 37 20 17 16 36 20 88 20 52 0 71 -4 88
-20z m-493 -549 c6 -6 30 -11 55 -13 42 -3 45 -5 46 -34 1 -28 -13 -46 -117
-150 -66 -65 -119 -124 -119 -130 0 -6 -7 -17 -15 -24 -21 -17 -83 -150 -87
-185 -3 -26 -8 -30 -36 -33 -18 -2 -58 -17 -88 -33 -31 -16 -71 -29 -90 -29
-18 0 -49 -9 -69 -20 -20 -11 -41 -20 -48 -20 -18 0 -194 -89 -207 -106 -7 -8
-18 -14 -24 -14 -19 0 -172 -162 -189 -201 -9 -20 -23 -42 -31 -48 -22 -18
-56 7 -56 41 0 15 -4 30 -10 33 -5 3 -10 17 -10 30 0 13 -4 27 -10 30 -5 3
-10 21 -10 40 0 19 -4 37 -10 40 -6 4 -10 62 -10 140 0 78 -4 136 -10 140 -6
4 -10 56 -10 122 0 126 10 153 55 153 13 0 28 7 35 15 15 18 109 65 131 65 9
0 22 7 29 15 18 22 69 45 100 45 15 0 35 9 45 20 10 11 28 20 41 20 13 0 26 5
29 10 3 6 19 10 35 10 16 0 45 9 65 20 20 11 44 20 55 20 10 0 22 5 25 10 3 6
39 10 80 10 41 0 77 5 80 10 8 13 338 13 350 1z m465 -6 c7 -9 32 -25 55 -35
23 -10 48 -26 55 -35 7 -8 17 -15 24 -15 14 0 246 -231 246 -246 0 -6 11 -21
25 -34 38 -35 55 -77 55 -132 l0 -48 -69 0 c-39 0 -73 -4 -76 -10 -3 -5 -17
-10 -30 -10 -13 0 -27 -4 -30 -10 -3 -5 -28 -10 -55 -10 -27 0 -52 5 -55 10
-4 6 -83 10 -205 10 -122 0 -201 -4 -205 -10 -3 -5 -17 -10 -30 -10 -13 0 -27
-4 -30 -10 -3 -5 -17 -10 -29 -10 -13 0 -29 -7 -36 -15 -7 -9 -29 -23 -49 -32
-20 -9 -59 -38 -87 -65 -47 -46 -53 -49 -73 -36 -19 12 -21 21 -21 125 0 64 4
114 10 118 6 3 10 16 10 29 0 13 9 31 20 41 11 10 20 28 20 40 0 11 18 38 40
60 22 21 40 44 40 49 0 14 132 146 145 146 6 0 24 14 40 30 16 17 34 30 40 30
6 0 24 14 40 30 16 17 34 30 40 30 7 0 20 9 30 20 23 26 125 29 145 5z m900
-35 c0 -5 14 -10 30 -10 17 0 30 -4 30 -10 0 -5 18 -10 40 -10 22 0 40 -4 40
-10 0 -5 9 -10 20 -10 11 0 20 -4 20 -10 0 -5 9 -10 20 -10 11 0 20 -4 20 -10
0 -5 14 -10 30 -10 17 0 30 -4 30 -10 0 -5 9 -10 20 -10 11 0 20 -4 20 -10 0
-5 9 -10 20 -10 11 0 20 -4 20 -10 0 -5 9 -10 20 -10 11 0 20 -4 20 -10 0 -5
13 -10 28 -10 16 0 34 -8 42 -20 8 -11 22 -20 32 -20 10 0 18 -4 18 -10 0 -5
9 -10 20 -10 11 0 20 -4 20 -10 0 -5 9 -10 20 -10 19 0 20 -7 20 -125 0 -77
-4 -125 -10 -125 -6 0 -10 -40 -10 -100 0 -60 -4 -100 -10 -100 -5 0 -10 -18
-10 -40 0 -22 -4 -40 -10 -40 -6 0 -10 -30 -10 -70 0 -40 -4 -70 -10 -70 -5 0
-10 -13 -10 -30 0 -16 -4 -30 -10 -30 -5 0 -10 -13 -10 -30 0 -16 -4 -30 -10
-30 -5 0 -10 -18 -10 -40 0 -22 -4 -40 -10 -40 -5 0 -10 -9 -10 -20 0 -11 -4
-20 -10 -20 -5 0 -10 -9 -10 -20 0 -11 -4 -20 -10 -20 -5 0 -10 -9 -10 -20 0
-11 -4 -20 -10 -20 -5 0 -10 -13 -10 -28 0 -16 -8 -34 -20 -42 -11 -8 -20 -20
-20 -27 0 -17 -86 -103 -103 -103 -7 0 -19 -9 -27 -20 -16 -22 -50 -27 -50 -7
0 7 9 19 20 27 11 8 20 22 20 32 0 10 5 18 10 18 6 0 10 9 10 20 0 11 5 20 10
20 6 0 10 7 10 16 0 9 14 29 30 44 17 15 30 35 30 44 0 9 5 16 10 16 6 0 10 9
10 20 0 11 5 20 10 20 19 0 11 65 -10 80 -11 8 -20 21 -20 30 0 9 -9 22 -20
30 -11 8 -20 21 -20 30 0 9 -9 22 -20 30 -11 8 -20 20 -20 28 0 7 -22 35 -50
62 -27 27 -50 54 -50 60 0 6 -31 42 -70 80 l-70 69 0 236 c0 150 -4 235 -10
235 -5 0 -10 9 -10 20 0 11 -4 20 -10 20 -5 0 -10 9 -10 20 0 11 -4 20 -10 20
-5 0 -10 10 -10 23 0 13 -9 33 -20 45 -11 12 -20 35 -20 52 0 29 1 30 50 30
28 0 50 -4 50 -10z m-985 -620 c3 -5 19 -10 35 -10 16 0 45 -9 65 -20 20 -11
43 -20 53 -20 18 0 158 -138 180 -177 18 -33 15 -56 -9 -71 -20 -13 -25 -10
-63 27 -23 23 -47 41 -52 41 -6 0 -19 9 -29 20 -10 11 -26 20 -36 20 -10 0
-34 9 -54 20 -20 11 -44 20 -55 20 -10 0 -22 5 -25 10 -3 6 -42 10 -85 10 -43
0 -82 -4 -85 -10 -3 -5 -14 -10 -24 -10 -37 0 -156 -71 -211 -125 -53 -52 -59
-56 -79 -43 -27 17 -27 34 3 93 26 51 102 135 122 135 6 0 17 7 24 15 18 21
69 45 99 46 14 0 40 9 56 19 33 20 159 28 170 10z m680 0 c3 -5 19 -10 34 -10
30 0 123 -43 141 -65 7 -8 17 -15 24 -15 14 0 266 -251 266 -266 0 -6 7 -17
15 -24 9 -7 25 -32 35 -55 10 -23 26 -48 35 -55 23 -19 20 -102 -5 -125 -11
-10 -20 -23 -20 -30 0 -6 -13 -24 -30 -40 -16 -16 -30 -34 -30 -40 0 -6 -13
-24 -30 -40 -16 -16 -30 -34 -30 -40 0 -6 -44 -53 -97 -106 -66 -65 -116 -105
-154 -123 -32 -14 -62 -33 -69 -41 -7 -8 -28 -15 -46 -15 l-34 0 0 59 c0 33
-4 63 -10 66 -5 3 -10 17 -10 30 0 13 -4 27 -10 30 -5 3 -10 42 -10 85 0 43 5
82 10 85 6 4 10 78 10 190 0 166 -2 188 -20 220 -11 20 -20 41 -20 49 0 32
-55 115 -115 176 -62 62 -66 69 -54 89 13 19 23 21 116 21 57 0 105 -4 108
-10z m-1315 -69 c0 -33 5 -63 10 -66 6 -4 10 -122 10 -320 0 -198 4 -316 10
-320 6 -3 10 -17 10 -29 0 -13 7 -29 15 -36 9 -7 24 -32 35 -54 10 -23 44 -66
74 -96 45 -44 56 -61 56 -87 l0 -33 -114 0 c-66 0 -117 4 -121 10 -3 6 -14 10
-24 10 -9 0 -48 16 -86 35 -54 27 -96 62 -192 157 -68 68 -123 128 -123 133 0
6 -13 24 -30 40 -16 16 -30 34 -30 40 0 6 -14 24 -30 40 -27 26 -30 34 -30 95
0 61 3 69 30 95 17 16 30 34 30 40 0 7 9 20 20 30 11 10 20 23 20 30 0 6 18
29 40 50 22 21 40 44 40 49 0 14 132 146 146 146 6 0 19 9 29 20 10 11 23 20
30 20 7 0 20 9 30 20 10 11 28 20 41 20 13 0 26 5 29 10 3 6 22 10 41 10 l34
0 0 -59z m940 29 c0 -5 10 -10 22 -10 31 0 198 -166 198 -197 0 -12 5 -25 10
-28 6 -3 10 -17 10 -30 0 -13 5 -27 10 -30 6 -4 10 -58 10 -129 0 -111 -2
-127 -25 -173 -15 -28 -33 -57 -40 -63 -8 -7 -15 -18 -15 -24 0 -14 -105 -115
-137 -134 -33 -18 -56 -15 -71 9 -12 19 -10 25 17 53 17 18 31 37 31 43 0 6 7
16 15 23 8 6 30 44 50 83 34 70 35 75 35 189 0 99 -3 123 -20 153 -11 20 -20
44 -20 53 0 10 -13 31 -30 47 -16 16 -30 34 -30 40 0 6 -18 29 -40 50 -50 49
-54 85 -10 85 17 0 30 -4 30 -10z m-1420 -190 c0 -11 -4 -20 -10 -20 -5 0 -10
-9 -10 -20 0 -11 -4 -20 -8 -20 -5 0 -14 -16 -22 -35 -7 -19 -26 -47 -42 -62
-15 -15 -28 -32 -28 -39 0 -6 -7 -17 -15 -24 -9 -7 -25 -33 -36 -57 -19 -43
-19 -43 0 -86 11 -24 27 -50 36 -57 8 -7 15 -18 15 -24 0 -7 13 -25 30 -41 16
-16 30 -34 30 -40 0 -6 14 -24 30 -40 17 -16 30 -34 30 -40 0 -6 41 -51 90
-100 l90 -90 0 -77 c0 -42 -5 -80 -10 -83 -13 -8 -13 -222 0 -230 6 -3 10 -17
10 -30 0 -13 5 -27 10 -30 6 -3 10 -19 10 -34 0 -16 18 -63 40 -105 33 -65 37
-80 27 -97 -13 -20 -71 -27 -82 -9 -3 6 -15 10 -25 10 -11 0 -35 9 -55 20 -20
11 -47 20 -60 20 -13 0 -40 9 -60 20 -20 11 -42 20 -49 20 -7 0 -48 18 -91 40
-43 22 -83 40 -90 40 -16 0 -73 29 -80 41 -4 5 -26 18 -51 29 l-44 20 0 120
c0 68 4 121 10 125 6 4 10 62 10 140 0 78 4 136 10 140 6 3 10 26 10 50 0 24
5 47 10 50 6 3 10 21 10 40 0 19 5 37 10 40 6 3 10 21 10 40 0 19 4 37 10 40
6 3 10 15 10 25 0 11 9 35 20 55 11 20 20 42 20 49 0 16 28 74 40 81 5 3 21
31 36 63 28 58 128 172 151 172 7 0 13 5 13 10 0 6 9 10 20 10 13 0 20 -7 20
-20z m908 -1 c13 -20 9 -26 -43 -79 -55 -56 -105 -137 -105 -171 0 -10 -4 -21
-10 -24 -5 -3 -10 -17 -10 -30 0 -13 -4 -27 -10 -30 -5 -3 -10 -33 -10 -65 0
-32 5 -62 10 -65 6 -3 10 -21 10 -40 0 -19 5 -37 10 -40 6 -3 10 -14 10 -24 0
-35 51 -117 105 -171 65 -64 74 -100 25 -100 -16 0 -30 3 -30 8 0 9 -49 32
-70 32 -24 0 -118 100 -146 155 -13 27 -24 61 -24 76 0 15 -4 31 -10 34 -13 8
-13 242 0 250 6 3 10 19 10 34 0 70 99 197 191 246 56 29 81 30 97 4z m343
-26 c40 -46 49 -70 49 -133 0 -63 -9 -87 -49 -132 -23 -26 -30 -28 -110 -28
-85 0 -85 0 -123 37 l-38 37 0 85 c0 85 0 85 37 123 l37 38 86 0 c82 0 88 -2
111 -27z m-348 -107 c10 -8 17 -27 17 -47 0 -28 11 -45 72 -106 40 -40 81 -73
90 -73 10 0 27 -6 38 -12 16 -10 24 -10 40 0 11 6 28 12 37 12 19 0 123 98
123 116 0 6 9 19 20 29 11 10 20 29 20 43 0 22 23 51 42 52 3 0 18 -23 32 -52
23 -45 26 -65 26 -148 0 -82 -4 -103 -25 -146 -30 -61 -87 -118 -150 -150 -42
-21 -62 -24 -151 -24 -58 0 -106 4 -109 10 -3 6 -16 10 -27 10 -12 0 -30 7
-40 17 -10 9 -28 21 -40 27 -13 6 -28 21 -34 34 -6 12 -17 30 -25 39 -34 43
-39 65 -39 183 0 118 5 140 39 183 17 20 21 21 44 3z m1715 -396 c2 -14 8 -29
13 -34 5 -6 9 -38 9 -72 0 -35 5 -66 10 -69 6 -3 10 -21 10 -40 0 -19 5 -37
10 -40 6 -4 10 -90 10 -226 0 -200 -2 -220 -17 -226 -10 -3 -26 -13 -35 -21
-22 -18 -229 -122 -244 -122 -7 0 -38 -13 -69 -30 -31 -16 -68 -30 -81 -30
-13 0 -39 -9 -59 -20 -20 -11 -44 -20 -55 -20 -10 0 -22 -4 -25 -10 -3 -5 -30
-10 -60 -10 -30 0 -57 -4 -60 -10 -3 -5 -17 -10 -30 -10 -13 0 -27 -4 -30 -10
-8 -13 -377 -13 -390 -1 -6 5 -26 11 -45 13 -33 3 -35 5 -38 42 -3 38 0 43
116 160 65 67 127 138 136 158 9 20 21 40 26 43 11 7 58 104 62 130 2 12 12
21 26 23 13 2 48 17 78 33 31 16 64 29 74 29 11 0 22 5 25 10 3 6 19 10 35 10
16 0 45 9 65 20 20 11 42 20 49 20 19 0 72 28 86 45 7 8 22 15 35 15 12 0 30
9 40 20 10 11 23 20 29 20 13 0 196 181 196 194 0 22 32 44 63 42 26 -1 33 -6
35 -26z m-1723 -60 c27 -27 54 -50 61 -50 6 0 17 -7 24 -15 18 -22 70 -45 101
-45 15 0 31 -4 34 -10 4 -6 57 -10 125 -10 68 0 121 4 125 10 3 6 16 10 29 10
13 0 31 9 41 20 10 11 23 20 30 20 7 0 20 9 30 20 10 11 23 20 29 20 5 0 24
14 42 31 28 27 34 29 53 17 41 -25 26 -62 -64 -156 -57 -60 -103 -92 -131 -92
-7 0 -29 -9 -49 -20 -30 -17 -54 -20 -159 -20 -110 0 -125 2 -141 20 -10 11
-28 20 -41 20 -13 0 -26 5 -29 10 -3 6 -16 10 -28 10 -45 0 -177 163 -177 218
0 13 27 41 40 42 3 0 28 -22 55 -50z m788 -164 c14 -11 17 -30 17 -114 0 -56
-4 -104 -10 -107 -5 -3 -10 -17 -10 -30 0 -13 -4 -27 -10 -30 -5 -3 -10 -14
-10 -24 0 -26 -26 -74 -55 -101 -14 -13 -25 -28 -25 -34 0 -14 -151 -166 -165
-166 -6 0 -29 -18 -50 -40 -21 -22 -44 -40 -50 -40 -7 0 -20 -9 -30 -20 -10
-11 -24 -20 -30 -20 -7 0 -18 -7 -25 -15 -37 -44 -125 -59 -155 -25 -10 11
-23 20 -30 20 -7 0 -20 9 -30 20 -10 11 -23 20 -30 20 -7 0 -20 9 -30 20 -10
11 -23 20 -29 20 -6 0 -66 55 -134 123 -128 128 -192 225 -192 289 0 28 1 28
59 28 33 0 63 5 66 10 3 6 21 10 40 10 19 0 37 5 40 10 3 6 33 10 65 10 32 0
62 -4 65 -10 4 -6 81 -10 200 -10 l193 0 57 30 c31 17 65 30 74 30 10 0 26 9
36 20 10 11 23 20 29 20 7 0 38 27 71 60 33 33 62 60 65 60 3 0 13 -7 23 -14z
m-1289 -175 c30 -16 65 -31 78 -33 17 -2 24 -10 26 -33 4 -41 66 -166 97 -195
14 -13 25 -28 25 -34 0 -14 222 -236 235 -236 6 0 24 -13 40 -30 16 -16 34
-30 40 -30 6 0 24 -13 40 -30 16 -16 38 -30 50 -30 12 0 34 -13 50 -30 38 -40
91 -42 125 -5 60 64 144 73 235 25 44 -23 70 -30 115 -30 33 0 62 -4 65 -10 3
-5 23 -10 43 -10 27 0 41 -6 51 -21 12 -20 7 -27 -65 -100 -43 -44 -83 -79
-89 -79 -6 0 -24 -14 -40 -30 -16 -17 -34 -30 -40 -30 -6 0 -24 -14 -40 -30
-16 -17 -34 -30 -40 -30 -6 0 -22 -12 -36 -26 -13 -14 -43 -34 -66 -45 -23
-10 -44 -23 -48 -28 -11 -19 -69 -41 -105 -41 -37 0 -129 40 -150 65 -7 8 -18
15 -25 15 -7 0 -18 7 -25 15 -7 9 -32 24 -54 35 -23 10 -52 30 -65 44 -14 14
-29 26 -36 26 -6 0 -37 27 -70 60 -33 33 -64 60 -70 60 -14 0 -185 172 -185
186 0 6 -9 19 -20 29 -11 10 -20 23 -20 30 0 6 -11 22 -25 35 -32 30 -115 197
-115 232 0 15 -4 30 -10 33 -11 7 -14 317 -3 328 15 16 75 5 127 -22z"/>
</g>
</svg>
